# Created by Kenney (www.kenney.nl)

mtllib board_2.mtl

v 9 -8 0.5
v 9 -8 -0.5
v 8 -8 0.5
v 8 -8 -0.5
v 8 10 -0.5
v 8 10 0.5
v 9 10 -0.5
v 9 10 0.5
v 8 9 0.5
v 8 9 -0.5
v -9 9 0.5
v -9 9 -0.5
v -9 10 -0.5
v -9 10 0.5
v 9 9 0.5
v 9 9 -0.5
v -8 -8 0.5
v -8 -8 -0.5
v -9 -8 0.5
v -9 -8 -0.5
v -8 9 -0.5
v -8 9 0.5
v -8 -7 -0.5
v -8 -7 0.5
v 8 -7 -0.5
v 8 -7 0.5
v 6 7 1
v 6 7 -1
v 4 7 1
v 4 7 -1
v 4 9 -1
v 4 9 1
v 6 9 -1
v 6 9 1
v 2 7 1
v 2 7 -1
v 0 7 1
v 0 7 -1
v 0 9 -1
v 0 9 1
v 2 9 -1
v 2 9 1
v -2 7 1
v -2 7 -1
v -4 7 1
v -4 7 -1
v -4 9 -1
v -4 9 1
v -2 9 -1
v -2 9 1
v -6 7 1
v -6 7 -1
v -8 7 1
v -8 7 -1
v -8 9 -1
v -8 9 1
v -6 9 -1
v -6 9 1
v 8 5 1
v 8 5 -1
v 6 5 1
v 6 5 -1
v 8 7 -1
v 8 7 1
v 4 5 1
v 4 5 -1
v 2 5 1
v 2 5 -1
v 0 5 1
v 0 5 -1
v -2 5 1
v -2 5 -1
v -4 5 1
v -4 5 -1
v -6 5 1
v -6 5 -1
v 6 3 1
v 6 3 -1
v 4 3 1
v 4 3 -1
v 2 3 1
v 2 3 -1
v 0 3 1
v 0 3 -1
v -2 3 1
v -2 3 -1
v -4 3 1
v -4 3 -1
v -6 3 1
v -6 3 -1
v -8 3 1
v -8 3 -1
v -8 5 -1
v -8 5 1
v 8 1 1
v 8 1 -1
v 6 1 1
v 6 1 -1
v 8 3 -1
v 8 3 1
v 4 1 1
v 4 1 -1
v 2 1 1
v 2 1 -1
v 0 1 1
v 0 1 -1
v -2 1 1
v -2 1 -1
v -4 1 1
v -4 1 -1
v -6 1 1
v -6 1 -1
v 6 -1 1
v 6 -1 -1
v 4 -1 1
v 4 -1 -1
v 2 -1 1
v 2 -1 -1
v 0 -1 1
v 0 -1 -1
v -2 -1 1
v -2 -1 -1
v -4 -1 1
v -4 -1 -1
v -6 -1 1
v -6 -1 -1
v -8 -1 1
v -8 -1 -1
v -8 1 -1
v -8 1 1
v 8 -3 1
v 8 -3 -1
v 6 -3 1
v 6 -3 -1
v 8 -1 -1
v 8 -1 1
v 4 -3 1
v 4 -3 -1
v 2 -3 1
v 2 -3 -1
v 0 -3 1
v 0 -3 -1
v -2 -3 1
v -2 -3 -1
v -4 -3 1
v -4 -3 -1
v -6 -3 1
v -6 -3 -1
v 6 -5 1
v 6 -5 -1
v 4 -5 1
v 4 -5 -1
v 2 -5 1
v 2 -5 -1
v 0 -5 1
v 0 -5 -1
v -2 -5 1
v -2 -5 -1
v -4 -5 1
v -4 -5 -1
v -6 -5 1
v -6 -5 -1
v -8 -5 1
v -8 -5 -1
v -8 -3 -1
v -8 -3 1
v 8 -7 1
v 8 -7 -1
v 6 -7 1
v 6 -7 -1
v 8 -5 -1
v 8 -5 1
v 4 -7 1
v 4 -7 -1
v 2 -7 1
v 2 -7 -1
v 0 -7 1
v 0 -7 -1
v -2 -7 1
v -2 -7 -1
v -4 -7 1
v -4 -7 -1
v -6 -7 1
v -6 -7 -1

vn 0 -1 0
vn -1 0 0
vn 0 0 -1
vn 0 0 1
vn 1 0 0
vn 0 1 0

vt 0 NaN
vt 0 0
vt 0 NaN
vt 0 NaN
vt 0 NaN
vt 0 NaN
vt 0 NaN
vt 0 NaN
vt 0 NaN
vt 0 NaN
vt 0 NaN
vt 0 NaN
vt 0 NaN
vt 0 NaN
vt 0 NaN
vt 0 NaN
vt 0 NaN
vt 0 NaN
vt 0 NaN
vt 0 NaN
vt 0 NaN
vt 0 NaN
vt 0 NaN
vt 0 NaN
vt 0 NaN
vt 0 NaN
vt 0 NaN
vt 0 NaN
vt 0 NaN
vt 0 NaN
vt 0 NaN
vt 0 NaN
vt 0 NaN
vt 0 NaN
vt 0 NaN
vt 0 NaN
vt 0 NaN
vt 0 NaN
vt 0 NaN
vt 0 NaN
vt 0 NaN
vt 0 NaN
vt 0 NaN
vt 0 NaN
vt 0 NaN
vt 0 NaN
vt 0 NaN
vt 0 NaN
vt 0 NaN
vt 0 NaN
vt 0 NaN
vt 0 NaN
vt 0 NaN
vt 0 NaN
vt 0 NaN
vt 0 NaN
vt 0 NaN
vt 0 NaN
vt 0 NaN
vt 0 NaN
vt 0 NaN
vt 0 NaN
vt 0 NaN
vt 0 NaN
vt 0 NaN
vt 0 NaN
vt 0 NaN
vt 0 NaN
vt 0 NaN
vt 0 NaN
vt 0 NaN
vt 0 NaN
vt 0 NaN
vt 0 NaN
vt 0 NaN
vt 0 NaN
vt 0 NaN
vt 0 NaN
vt 0 NaN
vt 0 NaN
vt 0 NaN
vt 0 NaN
vt 0 NaN
vt 0 NaN
vt 0 NaN
vt 0 NaN
vt 0 NaN
vt 0 NaN
vt 0 NaN
vt 0 NaN
vt 0 NaN
vt 0 NaN
vt 0 NaN
vt 0 NaN
vt 0 NaN
vt 0 NaN
vt 0 NaN
vt 0 NaN
vt 0 NaN
vt 0 NaN
vt 0 NaN
vt 0 NaN
vt 0 NaN
vt 0 NaN
vt 0 NaN
vt 0 NaN
vt 0 NaN
vt 0 NaN
vt 0 NaN
vt 0 NaN
vt 0 NaN
vt 0 NaN
vt 0 NaN
vt 0 NaN
vt 0 NaN
vt 0 NaN
vt 0 NaN
vt 0 NaN
vt 0 NaN
vt 0 NaN
vt 0 NaN
vt 0 NaN
vt 0 NaN
vt 0 NaN
vt 0 NaN
vt 0 NaN
vt 0 NaN
vt 0 NaN
vt 0 NaN
vt 0 NaN
vt 0 NaN
vt 0 NaN
vt 0 NaN
vt 0 NaN
vt 0 NaN
vt 0 NaN
vt 0 NaN
vt 0 NaN
vt 0 NaN
vt 0 NaN
vt 0 NaN
vt 0 NaN
vt 0 NaN
vt 0 NaN
vt 0 NaN
vt 0 NaN
vt 0 NaN
vt 0 NaN
vt 0 NaN
vt 0 NaN
vt 0 NaN
vt 0 NaN
vt 0 NaN
vt 0 NaN
vt 0 NaN
vt 0 NaN
vt 0 NaN
vt 0 NaN
vt 0 NaN
vt 0 NaN
vt 0 NaN
vt 0 NaN
vt 0 NaN
vt 0 NaN
vt 0 NaN
vt 0 NaN
vt 0 NaN
vt 0 NaN
vt 0 NaN
vt 0 NaN
vt 0 NaN
vt 0 NaN
vt 0 NaN
vt 0 NaN
vt 0 NaN
vt 0 NaN
vt 0 NaN
vt 0 NaN
vt 0 NaN
vt 0 NaN
vt 0 NaN
vt 0 NaN
vt 0 NaN
vt 0 NaN
vt 0 NaN
vt 0 NaN
vt 0 NaN
vt 0 NaN
vt 0 NaN
vt 0 NaN
vt 0 NaN
vt 0 NaN
vt 0 NaN
vt 0 NaN
vt 0 NaN
vt 0 NaN
vt 0 NaN
vt 0 NaN
vt 0 NaN
vt 0 NaN
vt 0 NaN
vt 0 NaN
vt 0 NaN
vt 0 NaN
vt 0 NaN
vt 0 NaN
vt 0 NaN
vt 0 NaN
vt 0 NaN
vt 0 NaN
vt 0 NaN
vt 0 NaN
vt 0 NaN
vt 0 NaN
vt 0 NaN
vt 0 NaN
vt 0 NaN
vt 0 NaN
vt 0 NaN
vt 0 NaN
vt 0 NaN
vt 0 NaN
vt 0 NaN
vt 0 NaN
vt 0 NaN
vt 0 NaN
vt 0 NaN
vt 0 NaN
vt 0 NaN
vt 0 NaN
vt 0 NaN
vt 0 NaN
vt 0 NaN
vt 0 NaN
vt 0 NaN
vt 0 NaN
vt 0 NaN
vt 0 NaN
vt 0 NaN
vt 0 NaN
vt 0 NaN
vt 0 NaN
vt 0 NaN
vt 0 NaN
vt 0 NaN
vt 0 NaN
vt 0 NaN
vt 0 NaN
vt 0 NaN
vt 0 NaN
vt 0 NaN
vt 0 NaN
vt 0 NaN
vt 0 NaN
vt 0 NaN
vt 0 NaN
vt 0 NaN
vt 0 NaN
vt 0 NaN
vt 0 NaN
vt 0 NaN
vt 0 NaN
vt 0 NaN
vt 0 NaN
vt 0 NaN
vt 0 NaN
vt 0 NaN
vt 0 NaN
vt 0 NaN
vt 0 NaN
vt 0 NaN
vt 0 NaN
vt 0 NaN
vt 0 NaN
vt 0 NaN
vt 0 NaN
vt 0 NaN
vt 0 NaN
vt 0 NaN
vt 0 NaN
vt 0 NaN
vt 0 NaN
vt 0 NaN
vt 0 NaN
vt 0 NaN
vt 0 NaN
vt 0 NaN
vt 0 NaN
vt 0 NaN
vt 0 NaN
vt 0 NaN
vt 0 NaN
vt 0 NaN
vt 0 NaN
vt 0 NaN
vt 0 NaN
vt 0 NaN
vt 0 NaN
vt 0 NaN
vt 0 NaN
vt 0 NaN
vt 0 NaN
vt 0 NaN
vt 0 NaN
vt 0 NaN
vt 0 NaN
vt 0 NaN
vt 0 NaN
vt 0 NaN
vt 0 NaN
vt 0 NaN
vt 0 NaN
vt 0 NaN
vt 0 NaN
vt 0 NaN
vt 0 NaN
vt 0 NaN
vt 0 NaN
vt 0 NaN
vt 0 NaN
vt 0 NaN
vt 0 NaN
vt 0 NaN
vt 0 NaN
vt 0 NaN
vt 0 NaN
vt 0 NaN
vt 0 NaN
vt 0 NaN
vt 0 NaN
vt 0 NaN
vt 0 NaN
vt 0 NaN
vt 0 NaN
vt 0 NaN
vt 0 NaN
vt 0 NaN
vt 0 NaN
vt 0 NaN
vt 0 NaN
vt 0 NaN
vt 0 NaN
vt 0 NaN
vt 0 NaN
vt 0 NaN
vt 0 NaN
vt 0 NaN
vt 0 NaN
vt 0 NaN
vt 0 NaN
vt 0 NaN
vt 0 NaN
vt 0 NaN
vt 0 NaN
vt 0 NaN
vt 0 NaN
vt 0 NaN
vt 0 NaN
vt 0 NaN
vt 0 NaN
vt 0 NaN
vt 0 NaN
vt 0 NaN
vt 0 NaN
vt 0 NaN
vt 0 NaN
vt 0 NaN
vt 0 NaN
vt 0 NaN
vt 0 NaN
vt 0 NaN
vt 0 NaN
vt 0 NaN
vt 0 NaN
vt 0 NaN
vt 0 NaN
vt 0 NaN
vt 0 NaN
vt 0 NaN

usemtl color2

f 3/2/1 2/2/1 1/1/1
f 2/2/1 3/2/1 4/3/1
f 3/2/2 5/2/2 4/4/2
f 5/2/2 3/2/2 6/5/2
f 5/2/3 2/2/3 4/6/3
f 2/2/3 5/2/3 7/7/3
f 8/2/4 3/2/4 1/8/4
f 3/2/4 8/2/4 6/9/4
f 8/2/5 2/2/5 7/10/5
f 2/2/5 8/2/5 1/11/5
f 5/2/6 8/2/6 7/12/6
f 8/2/6 5/2/6 6/13/6
f 11/2/1 10/2/1 9/14/1
f 10/2/1 11/2/1 12/15/1
f 11/2/2 13/2/2 12/16/2
f 13/2/2 11/2/2 14/17/2
f 13/2/3 10/2/3 12/18/3
f 10/2/3 13/2/3 5/2/3
f 6/9/4 11/2/4 9/19/4
f 11/2/4 6/9/4 14/20/4
f 6/2/5 10/2/5 5/21/5
f 10/2/5 6/2/5 9/22/5
f 13/2/6 6/13/6 5/2/6
f 6/13/6 13/2/6 14/23/6
f 11/2/1 16/2/1 15/24/1
f 16/2/1 11/2/1 12/15/1
f 11/2/2 13/2/2 12/16/2
f 13/2/2 11/2/2 14/17/2
f 13/2/3 16/2/3 12/18/3
f 16/2/3 13/2/3 7/7/3
f 8/2/4 11/2/4 15/25/4
f 11/2/4 8/2/4 14/20/4
f 8/2/5 16/2/5 7/10/5
f 16/2/5 8/2/5 15/26/5
f 13/2/6 8/2/6 7/12/6
f 8/2/6 13/2/6 14/23/6
f 19/2/1 18/2/1 17/27/1
f 18/2/1 19/2/1 20/28/1
f 19/2/2 12/16/2 20/29/2
f 12/16/2 19/2/2 11/2/2
f 12/18/3 18/2/3 20/30/3
f 18/2/3 12/18/3 21/31/3
f 22/2/4 19/2/4 17/32/4
f 19/2/4 22/2/4 11/2/4
f 22/2/5 18/2/5 21/33/5
f 18/2/5 22/2/5 17/34/5
f 12/2/6 22/2/6 21/35/6
f 22/2/6 12/2/6 11/36/6
f 17/27/1 4/3/1 3/2/1
f 4/3/1 17/27/1 18/2/1
f 17/2/2 23/2/2 18/37/2
f 23/2/2 17/2/2 24/38/2
f 23/2/3 4/6/3 18/2/3
f 4/6/3 23/2/3 25/39/3
f 26/2/4 17/32/4 3/2/4
f 17/32/4 26/2/4 24/40/4
f 26/2/5 4/2/5 25/41/5
f 4/2/5 26/2/5 3/42/5
f 23/2/6 26/2/6 25/43/6
f 26/2/6 23/2/6 24/44/6

usemtl color14

f 29/2/1 28/2/1 27/45/1
f 28/2/1 29/2/1 30/46/1
f 29/2/2 31/2/2 30/47/2
f 31/2/2 29/2/2 32/48/2
f 31/2/3 28/2/3 30/49/3
f 28/2/3 31/2/3 33/50/3
f 34/2/4 29/2/4 27/51/4
f 29/2/4 34/2/4 32/52/4
f 34/2/5 28/2/5 33/53/5
f 28/2/5 34/2/5 27/54/5
f 31/2/6 34/2/6 33/55/6
f 34/2/6 31/2/6 32/56/6
f 37/2/1 36/2/1 35/57/1
f 36/2/1 37/2/1 38/58/1
f 37/2/2 39/2/2 38/59/2
f 39/2/2 37/2/2 40/60/2
f 39/2/3 36/2/3 38/61/3
f 36/2/3 39/2/3 41/62/3
f 42/2/4 37/2/4 35/63/4
f 37/2/4 42/2/4 40/64/4
f 42/2/5 36/2/5 41/65/5
f 36/2/5 42/2/5 35/66/5
f 39/2/6 42/2/6 41/67/6
f 42/2/6 39/2/6 40/68/6
f 45/2/1 44/2/1 43/69/1
f 44/2/1 45/2/1 46/70/1
f 45/2/2 47/2/2 46/71/2
f 47/2/2 45/2/2 48/72/2
f 47/2/3 44/2/3 46/73/3
f 44/2/3 47/2/3 49/74/3
f 50/2/4 45/2/4 43/75/4
f 45/2/4 50/2/4 48/76/4
f 50/2/5 44/2/5 49/77/5
f 44/2/5 50/2/5 43/78/5
f 47/2/6 50/2/6 49/79/6
f 50/2/6 47/2/6 48/80/6
f 53/2/1 52/2/1 51/81/1
f 52/2/1 53/2/1 54/82/1
f 53/2/2 55/2/2 54/83/2
f 55/2/2 53/2/2 56/84/2
f 55/2/3 52/2/3 54/85/3
f 52/2/3 55/2/3 57/86/3
f 58/2/4 53/2/4 51/87/4
f 53/2/4 58/2/4 56/88/4
f 58/2/5 52/2/5 57/89/5
f 52/2/5 58/2/5 51/90/5
f 55/2/6 58/2/6 57/91/6
f 58/2/6 55/2/6 56/92/6
f 61/2/1 60/2/1 59/93/1
f 60/2/1 61/2/1 62/94/1
f 61/2/2 28/2/2 62/95/2
f 28/2/2 61/2/2 27/96/2
f 28/2/3 60/2/3 62/97/3
f 60/2/3 28/2/3 63/98/3
f 64/2/4 61/2/4 59/99/4
f 61/2/4 64/2/4 27/51/4
f 64/2/5 60/2/5 63/100/5
f 60/2/5 64/2/5 59/101/5
f 28/2/6 64/2/6 63/102/6
f 64/2/6 28/2/6 27/103/6
f 67/2/1 66/2/1 65/104/1
f 66/2/1 67/2/1 68/105/1
f 67/2/2 36/2/2 68/106/2
f 36/2/2 67/2/2 35/107/2
f 36/2/3 66/2/3 68/108/3
f 66/2/3 36/2/3 30/49/3
f 29/2/4 67/2/4 65/109/4
f 67/2/4 29/2/4 35/63/4
f 29/2/5 66/2/5 30/110/5
f 66/2/5 29/2/5 65/111/5
f 36/2/6 29/2/6 30/112/6
f 29/2/6 36/2/6 35/113/6
f 71/2/1 70/2/1 69/114/1
f 70/2/1 71/2/1 72/115/1
f 71/2/2 44/2/2 72/116/2
f 44/2/2 71/2/2 43/117/2
f 44/2/3 70/2/3 72/118/3
f 70/2/3 44/2/3 38/61/3
f 37/2/4 71/2/4 69/119/4
f 71/2/4 37/2/4 43/75/4
f 37/2/5 70/2/5 38/120/5
f 70/2/5 37/2/5 69/121/5
f 44/2/6 37/2/6 38/122/6
f 37/2/6 44/2/6 43/123/6
f 75/2/1 74/2/1 73/124/1
f 74/2/1 75/2/1 76/125/1
f 75/2/2 52/2/2 76/126/2
f 52/2/2 75/2/2 51/127/2
f 52/2/3 74/2/3 76/128/3
f 74/2/3 52/2/3 46/73/3
f 45/2/4 75/2/4 73/129/4
f 75/2/4 45/2/4 51/87/4
f 45/2/5 74/2/5 46/130/5
f 74/2/5 45/2/5 73/131/5
f 52/2/6 45/2/6 46/132/6
f 45/2/6 52/2/6 51/133/6
f 79/2/1 78/2/1 77/134/1
f 78/2/1 79/2/1 80/135/1
f 79/2/2 66/2/2 80/136/2
f 66/2/2 79/2/2 65/137/2
f 66/2/3 78/2/3 80/138/3
f 78/2/3 66/2/3 62/97/3
f 61/2/4 79/2/4 77/139/4
f 79/2/4 61/2/4 65/109/4
f 61/2/5 78/2/5 62/140/5
f 78/2/5 61/2/5 77/141/5
f 66/2/6 61/2/6 62/142/6
f 61/2/6 66/2/6 65/143/6
f 83/2/1 82/2/1 81/144/1
f 82/2/1 83/2/1 84/145/1
f 83/2/2 70/2/2 84/146/2
f 70/2/2 83/2/2 69/147/2
f 70/2/3 82/2/3 84/148/3
f 82/2/3 70/2/3 68/108/3
f 67/2/4 83/2/4 81/149/4
f 83/2/4 67/2/4 69/119/4
f 67/2/5 82/2/5 68/150/5
f 82/2/5 67/2/5 81/151/5
f 70/2/6 67/2/6 68/152/6
f 67/2/6 70/2/6 69/153/6
f 87/2/1 86/2/1 85/154/1
f 86/2/1 87/2/1 88/155/1
f 87/2/2 74/2/2 88/156/2
f 74/2/2 87/2/2 73/157/2
f 74/2/3 86/2/3 88/158/3
f 86/2/3 74/2/3 72/118/3
f 71/2/4 87/2/4 85/159/4
f 87/2/4 71/2/4 73/129/4
f 71/2/5 86/2/5 72/160/5
f 86/2/5 71/2/5 85/161/5
f 74/2/6 71/2/6 72/162/6
f 71/2/6 74/2/6 73/163/6
f 91/2/1 90/2/1 89/164/1
f 90/2/1 91/2/1 92/165/1
f 91/2/2 93/2/2 92/166/2
f 93/2/2 91/2/2 94/167/2
f 93/2/3 90/2/3 92/168/3
f 90/2/3 93/2/3 76/128/3
f 75/2/4 91/2/4 89/169/4
f 91/2/4 75/2/4 94/170/4
f 75/2/5 90/2/5 76/171/5
f 90/2/5 75/2/5 89/172/5
f 93/2/6 75/2/6 76/173/6
f 75/2/6 93/2/6 94/174/6
f 97/2/1 96/2/1 95/175/1
f 96/2/1 97/2/1 98/176/1
f 97/2/2 78/2/2 98/177/2
f 78/2/2 97/2/2 77/178/2
f 78/2/3 96/2/3 98/179/3
f 96/2/3 78/2/3 99/180/3
f 100/2/4 97/2/4 95/181/4
f 97/2/4 100/2/4 77/139/4
f 100/2/5 96/2/5 99/182/5
f 96/2/5 100/2/5 95/183/5
f 78/2/6 100/2/6 99/184/6
f 100/2/6 78/2/6 77/185/6
f 103/2/1 102/2/1 101/186/1
f 102/2/1 103/2/1 104/187/1
f 103/2/2 82/2/2 104/188/2
f 82/2/2 103/2/2 81/189/2
f 82/2/3 102/2/3 104/190/3
f 102/2/3 82/2/3 80/138/3
f 79/2/4 103/2/4 101/191/4
f 103/2/4 79/2/4 81/149/4
f 79/2/5 102/2/5 80/192/5
f 102/2/5 79/2/5 101/193/5
f 82/2/6 79/2/6 80/194/6
f 79/2/6 82/2/6 81/195/6
f 107/2/1 106/2/1 105/196/1
f 106/2/1 107/2/1 108/197/1
f 107/2/2 86/2/2 108/198/2
f 86/2/2 107/2/2 85/199/2
f 86/2/3 106/2/3 108/200/3
f 106/2/3 86/2/3 84/148/3
f 83/2/4 107/2/4 105/201/4
f 107/2/4 83/2/4 85/159/4
f 83/2/5 106/2/5 84/202/5
f 106/2/5 83/2/5 105/203/5
f 86/2/6 83/2/6 84/204/6
f 83/2/6 86/2/6 85/205/6
f 111/2/1 110/2/1 109/206/1
f 110/2/1 111/2/1 112/207/1
f 111/2/2 90/2/2 112/208/2
f 90/2/2 111/2/2 89/209/2
f 90/2/3 110/2/3 112/210/3
f 110/2/3 90/2/3 88/158/3
f 87/2/4 111/2/4 109/211/4
f 111/2/4 87/2/4 89/169/4
f 87/2/5 110/2/5 88/212/5
f 110/2/5 87/2/5 109/213/5
f 90/2/6 87/2/6 88/214/6
f 87/2/6 90/2/6 89/215/6
f 115/2/1 114/2/1 113/216/1
f 114/2/1 115/2/1 116/217/1
f 115/2/2 102/2/2 116/218/2
f 102/2/2 115/2/2 101/219/2
f 102/2/3 114/2/3 116/220/3
f 114/2/3 102/2/3 98/179/3
f 97/2/4 115/2/4 113/221/4
f 115/2/4 97/2/4 101/191/4
f 97/2/5 114/2/5 98/222/5
f 114/2/5 97/2/5 113/223/5
f 102/2/6 97/2/6 98/224/6
f 97/2/6 102/2/6 101/225/6
f 119/2/1 118/2/1 117/226/1
f 118/2/1 119/2/1 120/227/1
f 119/2/2 106/2/2 120/228/2
f 106/2/2 119/2/2 105/229/2
f 106/2/3 118/2/3 120/230/3
f 118/2/3 106/2/3 104/190/3
f 103/2/4 119/2/4 117/231/4
f 119/2/4 103/2/4 105/201/4
f 103/2/5 118/2/5 104/232/5
f 118/2/5 103/2/5 117/233/5
f 106/2/6 103/2/6 104/234/6
f 103/2/6 106/2/6 105/235/6
f 123/2/1 122/2/1 121/236/1
f 122/2/1 123/2/1 124/237/1
f 123/2/2 110/2/2 124/238/2
f 110/2/2 123/2/2 109/239/2
f 110/2/3 122/2/3 124/240/3
f 122/2/3 110/2/3 108/200/3
f 107/2/4 123/2/4 121/241/4
f 123/2/4 107/2/4 109/211/4
f 107/2/5 122/2/5 108/242/5
f 122/2/5 107/2/5 121/243/5
f 110/2/6 107/2/6 108/244/6
f 107/2/6 110/2/6 109/245/6
f 127/2/1 126/2/1 125/246/1
f 126/2/1 127/2/1 128/247/1
f 127/2/2 129/2/2 128/248/2
f 129/2/2 127/2/2 130/249/2
f 129/2/3 126/2/3 128/250/3
f 126/2/3 129/2/3 112/210/3
f 111/2/4 127/2/4 125/251/4
f 127/2/4 111/2/4 130/252/4
f 111/2/5 126/2/5 112/253/5
f 126/2/5 111/2/5 125/254/5
f 129/2/6 111/2/6 112/255/6
f 111/2/6 129/2/6 130/256/6
f 133/2/1 132/2/1 131/257/1
f 132/2/1 133/2/1 134/258/1
f 133/2/2 114/2/2 134/259/2
f 114/2/2 133/2/2 113/260/2
f 114/2/3 132/2/3 134/261/3
f 132/2/3 114/2/3 135/262/3
f 136/2/4 133/2/4 131/263/4
f 133/2/4 136/2/4 113/221/4
f 136/2/5 132/2/5 135/264/5
f 132/2/5 136/2/5 131/265/5
f 114/2/6 136/2/6 135/266/6
f 136/2/6 114/2/6 113/267/6
f 139/2/1 138/2/1 137/268/1
f 138/2/1 139/2/1 140/269/1
f 139/2/2 118/2/2 140/270/2
f 118/2/2 139/2/2 117/271/2
f 118/2/3 138/2/3 140/272/3
f 138/2/3 118/2/3 116/220/3
f 115/2/4 139/2/4 137/273/4
f 139/2/4 115/2/4 117/231/4
f 115/2/5 138/2/5 116/274/5
f 138/2/5 115/2/5 137/275/5
f 118/2/6 115/2/6 116/276/6
f 115/2/6 118/2/6 117/277/6
f 143/2/1 142/2/1 141/278/1
f 142/2/1 143/2/1 144/279/1
f 143/2/2 122/2/2 144/280/2
f 122/2/2 143/2/2 121/281/2
f 122/2/3 142/2/3 144/282/3
f 142/2/3 122/2/3 120/230/3
f 119/2/4 143/2/4 141/283/4
f 143/2/4 119/2/4 121/241/4
f 119/2/5 142/2/5 120/284/5
f 142/2/5 119/2/5 141/285/5
f 122/2/6 119/2/6 120/286/6
f 119/2/6 122/2/6 121/287/6
f 147/2/1 146/2/1 145/288/1
f 146/2/1 147/2/1 148/289/1
f 147/2/2 126/2/2 148/290/2
f 126/2/2 147/2/2 125/291/2
f 126/2/3 146/2/3 148/292/3
f 146/2/3 126/2/3 124/240/3
f 123/2/4 147/2/4 145/293/4
f 147/2/4 123/2/4 125/251/4
f 123/2/5 146/2/5 124/294/5
f 146/2/5 123/2/5 145/295/5
f 126/2/6 123/2/6 124/296/6
f 123/2/6 126/2/6 125/297/6
f 151/2/1 150/2/1 149/298/1
f 150/2/1 151/2/1 152/299/1
f 151/2/2 138/2/2 152/300/2
f 138/2/2 151/2/2 137/301/2
f 138/2/3 150/2/3 152/302/3
f 150/2/3 138/2/3 134/261/3
f 133/2/4 151/2/4 149/303/4
f 151/2/4 133/2/4 137/273/4
f 133/2/5 150/2/5 134/304/5
f 150/2/5 133/2/5 149/305/5
f 138/2/6 133/2/6 134/306/6
f 133/2/6 138/2/6 137/307/6
f 155/2/1 154/2/1 153/308/1
f 154/2/1 155/2/1 156/309/1
f 155/2/2 142/2/2 156/310/2
f 142/2/2 155/2/2 141/311/2
f 142/2/3 154/2/3 156/312/3
f 154/2/3 142/2/3 140/272/3
f 139/2/4 155/2/4 153/313/4
f 155/2/4 139/2/4 141/283/4
f 139/2/5 154/2/5 140/314/5
f 154/2/5 139/2/5 153/315/5
f 142/2/6 139/2/6 140/316/6
f 139/2/6 142/2/6 141/317/6
f 159/2/1 158/2/1 157/318/1
f 158/2/1 159/2/1 160/319/1
f 159/2/2 146/2/2 160/320/2
f 146/2/2 159/2/2 145/321/2
f 146/2/3 158/2/3 160/322/3
f 158/2/3 146/2/3 144/282/3
f 143/2/4 159/2/4 157/323/4
f 159/2/4 143/2/4 145/293/4
f 143/2/5 158/2/5 144/324/5
f 158/2/5 143/2/5 157/325/5
f 146/2/6 143/2/6 144/326/6
f 143/2/6 146/2/6 145/327/6
f 163/2/1 162/2/1 161/328/1
f 162/2/1 163/2/1 164/329/1
f 163/2/2 165/2/2 164/330/2
f 165/2/2 163/2/2 166/331/2
f 165/2/3 162/2/3 164/332/3
f 162/2/3 165/2/3 148/292/3
f 147/2/4 163/2/4 161/333/4
f 163/2/4 147/2/4 166/334/4
f 147/2/5 162/2/5 148/335/5
f 162/2/5 147/2/5 161/336/5
f 165/2/6 147/2/6 148/337/6
f 147/2/6 165/2/6 166/338/6
f 169/2/1 168/2/1 167/339/1
f 168/2/1 169/2/1 170/340/1
f 169/2/2 150/2/2 170/341/2
f 150/2/2 169/2/2 149/342/2
f 150/2/3 168/2/3 170/343/3
f 168/2/3 150/2/3 171/344/3
f 172/2/4 169/2/4 167/345/4
f 169/2/4 172/2/4 149/303/4
f 172/2/5 168/2/5 171/346/5
f 168/2/5 172/2/5 167/347/5
f 150/2/6 172/2/6 171/348/6
f 172/2/6 150/2/6 149/349/6
f 175/2/1 174/2/1 173/350/1
f 174/2/1 175/2/1 176/351/1
f 175/2/2 154/2/2 176/352/2
f 154/2/2 175/2/2 153/353/2
f 154/2/3 174/2/3 176/354/3
f 174/2/3 154/2/3 152/302/3
f 151/2/4 175/2/4 173/355/4
f 175/2/4 151/2/4 153/313/4
f 151/2/5 174/2/5 152/356/5
f 174/2/5 151/2/5 173/357/5
f 154/2/6 151/2/6 152/358/6
f 151/2/6 154/2/6 153/359/6
f 179/2/1 178/2/1 177/360/1
f 178/2/1 179/2/1 180/361/1
f 179/2/2 158/2/2 180/362/2
f 158/2/2 179/2/2 157/363/2
f 158/2/3 178/2/3 180/364/3
f 178/2/3 158/2/3 156/312/3
f 155/2/4 179/2/4 177/365/4
f 179/2/4 155/2/4 157/323/4
f 155/2/5 178/2/5 156/366/5
f 178/2/5 155/2/5 177/367/5
f 158/2/6 155/2/6 156/368/6
f 155/2/6 158/2/6 157/369/6
f 183/2/1 182/2/1 181/370/1
f 182/2/1 183/2/1 184/371/1
f 183/2/2 162/2/2 184/372/2
f 162/2/2 183/2/2 161/373/2
f 162/2/3 182/2/3 184/374/3
f 182/2/3 162/2/3 160/322/3
f 159/2/4 183/2/4 181/375/4
f 183/2/4 159/2/4 161/333/4
f 159/2/5 182/2/5 160/376/5
f 182/2/5 159/2/5 181/377/5
f 162/2/6 159/2/6 160/378/6
f 159/2/6 162/2/6 161/379/6

