# Created by Kenney (www.kenney.nl)

mtllib cubo.mtl

v 2 1 1
v 2 1 -1
v 0 1 1
v 0 1 -1
v 0 3 -1
v 0 3 1
v 2 3 -1
v 2 3 1
v 2 2 1
v 2 2 -1
v 1 2 1
v 1 2 -1
v 1 3 -1
v 1 3 1
v -1 -1 1
v -1 -1 -1
v -3 -1 1
v -3 -1 -1
v -3 1 -1
v -3 1 1
v -1 1 -1
v -1 1 1

vn 0 -1 0
vn -1 0 0
vn 0 0 -1
vn 0 0 1
vn 1 0 0
vn 0 1 0

vt 0 NaN
vt 0 0
vt 0 NaN
vt 0 NaN
vt 0 NaN
vt 0 NaN
vt 0 NaN
vt 0 NaN
vt 0 NaN
vt 0 NaN
vt 0 NaN
vt 0 NaN
vt 0 NaN
vt 0 NaN
vt 0 NaN
vt 0 NaN
vt 0 NaN
vt 0 NaN
vt 0 NaN
vt 0 NaN
vt 0 NaN
vt 0 NaN
vt 0 NaN
vt 0 NaN
vt 0 NaN
vt 0 NaN
vt 0 NaN
vt 0 NaN
vt 0 NaN
vt 0 NaN
vt 0 NaN
vt 0 NaN
vt 0 NaN
vt 0 NaN

usemtl color0

f 3/2/1 2/2/1 1/1/1
f 2/2/1 3/2/1 4/3/1
f 3/2/2 5/2/2 4/4/2
f 5/2/2 3/2/2 6/5/2
f 5/2/3 2/2/3 4/6/3
f 2/2/3 5/2/3 7/7/3
f 8/2/4 3/2/4 1/8/4
f 3/2/4 8/2/4 6/9/4
f 8/2/5 2/2/5 7/10/5
f 2/2/5 8/2/5 1/11/5
f 5/2/6 8/2/6 7/12/6
f 8/2/6 5/2/6 6/13/6
f 11/2/1 10/2/1 9/14/1
f 10/2/1 11/2/1 12/15/1
f 11/2/2 13/2/2 12/16/2
f 13/2/2 11/2/2 14/17/2
f 13/2/3 10/2/3 12/18/3
f 10/2/3 13/2/3 7/7/3
f 8/2/4 11/2/4 9/19/4
f 11/2/4 8/2/4 14/20/4
f 8/2/5 10/2/5 7/10/5
f 10/2/5 8/2/5 9/21/5
f 13/2/6 8/2/6 7/12/6
f 8/2/6 13/2/6 14/22/6
f 17/2/1 16/2/1 15/23/1
f 16/2/1 17/2/1 18/24/1
f 17/2/2 19/2/2 18/25/2
f 19/2/2 17/2/2 20/26/2
f 19/2/3 16/2/3 18/27/3
f 16/2/3 19/2/3 21/28/3
f 22/2/4 17/2/4 15/29/4
f 17/2/4 22/2/4 20/30/4
f 22/2/5 16/2/5 21/31/5
f 16/2/5 22/2/5 15/32/5
f 19/2/6 22/2/6 21/33/6
f 22/2/6 19/2/6 20/34/6

