# Created by Kenney (www.kenney.nl)

mtllib pawn.mtl

v 1 1 1
v 1 1 -1
v -1 1 1
v -1 1 -1
v -1 2 -1
v -1 2 1
v 1 2 -1
v 1 2 1
v 0 1 1
v 0 1 -1
v 0 2 -1
v 0 2 1
v 2 -2 0.5
v 2 -2 -0.5
v 1 -2 0.5
v 1 -2 -0.5
v 1 1 -0.5
v 1 1 0.5
v 2 1 -0.5
v 2 1 0.5
v 1 -2 2
v 1 -2 -2
v -1 -2 2
v -1 -2 -2
v -1 1 -2
v -1 1 2
v 1 1 -2
v 1 1 2
v -1 -2 0.5
v -1 -2 -0.5
v -2 -2 0.5
v -2 -2 -0.5
v -2 1 -0.5
v -2 1 0.5
v -1 1 -0.5
v -1 1 0.5
v 1 -5 1
v 1 -5 -1
v -1 -5 1
v -1 -5 -1
v -1 -2 -1
v -1 -2 1
v 1 -2 -1
v 1 -2 1
v 2 -6 0.5
v 2 -6 -0.5
v 1 -6 0.5
v 1 -6 -0.5
v 1 -5 -0.5
v 1 -5 0.5
v 2 -5 -0.5
v 2 -5 0.5
v 1 -6 2
v 1 -6 -2
v -1 -6 2
v -1 -6 -2
v -1 -5 -2
v -1 -5 2
v 1 -5 -2
v 1 -5 2
v -1 -6 0.5
v -1 -6 -0.5
v -2 -6 0.5
v -2 -6 -0.5
v -2 -5 -0.5
v -2 -5 0.5
v -1 -5 -0.5
v -1 -5 0.5
v 3 -7 1
v 3 -7 -1
v 2 -7 1
v 2 -7 -1
v 2 -6 -1
v 2 -6 1
v 3 -6 -1
v 3 -6 1
v 2 -7 2
v 2 -7 -2
v 1 -7 2
v 1 -7 -2
v 2 -6 -2
v 2 -6 2
v 1 -7 3
v 1 -7 -3
v -1 -7 3
v -1 -7 -3
v -1 -6 -3
v -1 -6 3
v 1 -6 -3
v 1 -6 3
v -1 -7 2
v -1 -7 -2
v -2 -7 2
v -2 -7 -2
v -2 -6 -2
v -2 -6 2
v -2 -7 1
v -2 -7 -1
v -3 -7 1
v -3 -7 -1
v -3 -6 -1
v -3 -6 1
v -2 -6 -1
v -2 -6 1

vn 0 -1 0
vn -1 0 0
vn 0 0 -1
vn 0 0 1
vn 1 0 0
vn 0 1 0

vt 0.3125 0.0625

usemtl pawn

f 3/1/1 2/1/1 1/1/1
f 2/1/1 3/1/1 4/1/1
f 3/1/2 5/1/2 4/1/2
f 5/1/2 3/1/2 6/1/2
f 5/1/3 2/1/3 4/1/3
f 2/1/3 5/1/3 7/1/3
f 8/1/4 3/1/4 1/1/4
f 3/1/4 8/1/4 6/1/4
f 8/1/5 2/1/5 7/1/5
f 2/1/5 8/1/5 1/1/5
f 5/1/6 8/1/6 7/1/6
f 8/1/6 5/1/6 6/1/6
f 9/1/1 2/1/1 1/1/1
f 2/1/1 9/1/1 10/1/1
f 9/1/2 11/1/2 10/1/2
f 11/1/2 9/1/2 12/1/2
f 11/1/3 2/1/3 10/1/3
f 2/1/3 11/1/3 7/1/3
f 8/1/4 9/1/4 1/1/4
f 9/1/4 8/1/4 12/1/4
f 8/1/5 2/1/5 7/1/5
f 2/1/5 8/1/5 1/1/5
f 11/1/6 8/1/6 7/1/6
f 8/1/6 11/1/6 12/1/6
f 15/1/1 14/1/1 13/1/1
f 14/1/1 15/1/1 16/1/1
f 15/1/2 17/1/2 16/1/2
f 17/1/2 15/1/2 18/1/2
f 17/1/3 14/1/3 16/1/3
f 14/1/3 17/1/3 19/1/3
f 20/1/4 15/1/4 13/1/4
f 15/1/4 20/1/4 18/1/4
f 20/1/5 14/1/5 19/1/5
f 14/1/5 20/1/5 13/1/5
f 17/1/6 20/1/6 19/1/6
f 20/1/6 17/1/6 18/1/6
f 23/1/1 22/1/1 21/1/1
f 22/1/1 23/1/1 24/1/1
f 23/1/2 25/1/2 24/1/2
f 25/1/2 23/1/2 26/1/2
f 25/1/3 22/1/3 24/1/3
f 22/1/3 25/1/3 27/1/3
f 28/1/4 23/1/4 21/1/4
f 23/1/4 28/1/4 26/1/4
f 28/1/5 22/1/5 27/1/5
f 22/1/5 28/1/5 21/1/5
f 25/1/6 28/1/6 27/1/6
f 28/1/6 25/1/6 26/1/6
f 31/1/1 30/1/1 29/1/1
f 30/1/1 31/1/1 32/1/1
f 31/1/2 33/1/2 32/1/2
f 33/1/2 31/1/2 34/1/2
f 33/1/3 30/1/3 32/1/3
f 30/1/3 33/1/3 35/1/3
f 36/1/4 31/1/4 29/1/4
f 31/1/4 36/1/4 34/1/4
f 36/1/5 30/1/5 35/1/5
f 30/1/5 36/1/5 29/1/5
f 33/1/6 36/1/6 35/1/6
f 36/1/6 33/1/6 34/1/6
f 39/1/1 38/1/1 37/1/1
f 38/1/1 39/1/1 40/1/1
f 39/1/2 41/1/2 40/1/2
f 41/1/2 39/1/2 42/1/2
f 41/1/3 38/1/3 40/1/3
f 38/1/3 41/1/3 43/1/3
f 44/1/4 39/1/4 37/1/4
f 39/1/4 44/1/4 42/1/4
f 44/1/5 38/1/5 43/1/5
f 38/1/5 44/1/5 37/1/5
f 41/1/6 44/1/6 43/1/6
f 44/1/6 41/1/6 42/1/6
f 47/1/1 46/1/1 45/1/1
f 46/1/1 47/1/1 48/1/1
f 47/1/2 49/1/2 48/1/2
f 49/1/2 47/1/2 50/1/2
f 49/1/3 46/1/3 48/1/3
f 46/1/3 49/1/3 51/1/3
f 52/1/4 47/1/4 45/1/4
f 47/1/4 52/1/4 50/1/4
f 52/1/5 46/1/5 51/1/5
f 46/1/5 52/1/5 45/1/5
f 49/1/6 52/1/6 51/1/6
f 52/1/6 49/1/6 50/1/6
f 55/1/1 54/1/1 53/1/1
f 54/1/1 55/1/1 56/1/1
f 55/1/2 57/1/2 56/1/2
f 57/1/2 55/1/2 58/1/2
f 57/1/3 54/1/3 56/1/3
f 54/1/3 57/1/3 59/1/3
f 60/1/4 55/1/4 53/1/4
f 55/1/4 60/1/4 58/1/4
f 60/1/5 54/1/5 59/1/5
f 54/1/5 60/1/5 53/1/5
f 57/1/6 60/1/6 59/1/6
f 60/1/6 57/1/6 58/1/6
f 63/1/1 62/1/1 61/1/1
f 62/1/1 63/1/1 64/1/1
f 63/1/2 65/1/2 64/1/2
f 65/1/2 63/1/2 66/1/2
f 65/1/3 62/1/3 64/1/3
f 62/1/3 65/1/3 67/1/3
f 68/1/4 63/1/4 61/1/4
f 63/1/4 68/1/4 66/1/4
f 68/1/5 62/1/5 67/1/5
f 62/1/5 68/1/5 61/1/5
f 65/1/6 68/1/6 67/1/6
f 68/1/6 65/1/6 66/1/6
f 71/1/1 70/1/1 69/1/1
f 70/1/1 71/1/1 72/1/1
f 71/1/2 73/1/2 72/1/2
f 73/1/2 71/1/2 74/1/2
f 73/1/3 70/1/3 72/1/3
f 70/1/3 73/1/3 75/1/3
f 76/1/4 71/1/4 69/1/4
f 71/1/4 76/1/4 74/1/4
f 76/1/5 70/1/5 75/1/5
f 70/1/5 76/1/5 69/1/5
f 73/1/6 76/1/6 75/1/6
f 76/1/6 73/1/6 74/1/6
f 79/1/1 78/1/1 77/1/1
f 78/1/1 79/1/1 80/1/1
f 79/1/2 54/1/2 80/1/2
f 54/1/2 79/1/2 53/1/2
f 54/1/3 78/1/3 80/1/3
f 78/1/3 54/1/3 81/1/3
f 82/1/4 79/1/4 77/1/4
f 79/1/4 82/1/4 53/1/4
f 82/1/5 78/1/5 81/1/5
f 78/1/5 82/1/5 77/1/5
f 54/1/6 82/1/6 81/1/6
f 82/1/6 54/1/6 53/1/6
f 85/1/1 84/1/1 83/1/1
f 84/1/1 85/1/1 86/1/1
f 85/1/2 87/1/2 86/1/2
f 87/1/2 85/1/2 88/1/2
f 87/1/3 84/1/3 86/1/3
f 84/1/3 87/1/3 89/1/3
f 90/1/4 85/1/4 83/1/4
f 85/1/4 90/1/4 88/1/4
f 90/1/5 84/1/5 89/1/5
f 84/1/5 90/1/5 83/1/5
f 87/1/6 90/1/6 89/1/6
f 90/1/6 87/1/6 88/1/6
f 93/1/1 92/1/1 91/1/1
f 92/1/1 93/1/1 94/1/1
f 93/1/2 95/1/2 94/1/2
f 95/1/2 93/1/2 96/1/2
f 95/1/3 92/1/3 94/1/3
f 92/1/3 95/1/3 56/1/3
f 55/1/4 93/1/4 91/1/4
f 93/1/4 55/1/4 96/1/4
f 55/1/5 92/1/5 56/1/5
f 92/1/5 55/1/5 91/1/5
f 95/1/6 55/1/6 56/1/6
f 55/1/6 95/1/6 96/1/6
f 99/1/1 98/1/1 97/1/1
f 98/1/1 99/1/1 100/1/1
f 99/1/2 101/1/2 100/1/2
f 101/1/2 99/1/2 102/1/2
f 101/1/3 98/1/3 100/1/3
f 98/1/3 101/1/3 103/1/3
f 104/1/4 99/1/4 97/1/4
f 99/1/4 104/1/4 102/1/4
f 104/1/5 98/1/5 103/1/5
f 98/1/5 104/1/5 97/1/5
f 101/1/6 104/1/6 103/1/6
f 104/1/6 101/1/6 102/1/6

