# Created by Kenney (www.kenney.nl)

mtllib queen.mtl

v 3 4 0.5
v 3 4 -0.5
v 2 4 0.5
v 2 4 -0.5
v 2 6 -0.5
v 2 6 0.5
v 3 6 -0.5
v 3 6 0.5
v 1 5 0.5
v 1 5 -0.5
v -1 5 0.5
v -1 5 -0.5
v -1 6 -0.5
v -1 6 0.5
v 1 6 -0.5
v 1 6 0.5
v -2 4 0.5
v -2 4 -0.5
v -3 4 0.5
v -3 4 -0.5
v -3 6 -0.5
v -3 6 0.5
v -2 6 -0.5
v -2 6 0.5
v 3 5 0.5
v 3 5 -0.5
v 2 5 0.5
v 2 5 -0.5
v 2 3 0.5
v 2 3 -0.5
v 1 3 0.5
v 1 3 -0.5
v 1 2 1.5
v 1 2 -1.5
v -1 2 1.5
v -1 2 -1.5
v -1 5 -1.5
v -1 5 1.5
v 1 5 -1.5
v 1 5 1.5
v -1 3 0.5
v -1 3 -0.5
v -2 3 0.5
v -2 3 -0.5
v -2 5 -0.5
v -2 5 0.5
v 1 -5 1
v 1 -5 -1
v -1 -5 1
v -1 -5 -1
v -1 2 -1
v -1 2 1
v 1 2 -1
v 1 2 1
v 2 -6 0.5
v 2 -6 -0.5
v 1 -6 0.5
v 1 -6 -0.5
v 1 -5 -0.5
v 1 -5 0.5
v 2 -5 -0.5
v 2 -5 0.5
v 1 -6 2
v 1 -6 -2
v -1 -6 2
v -1 -6 -2
v -1 -5 -2
v -1 -5 2
v 1 -5 -2
v 1 -5 2
v -1 -6 0.5
v -1 -6 -0.5
v -2 -6 0.5
v -2 -6 -0.5
v -2 -5 -0.5
v -2 -5 0.5
v -1 -5 -0.5
v -1 -5 0.5
v 3 -7 1
v 3 -7 -1
v 2 -7 1
v 2 -7 -1
v 2 -6 -1
v 2 -6 1
v 3 -6 -1
v 3 -6 1
v 2 -7 2
v 2 -7 -2
v 1 -7 2
v 1 -7 -2
v 2 -6 -2
v 2 -6 2
v 1 -7 3
v 1 -7 -3
v -1 -7 3
v -1 -7 -3
v -1 -6 -3
v -1 -6 3
v 1 -6 -3
v 1 -6 3
v -1 -7 2
v -1 -7 -2
v -2 -7 2
v -2 -7 -2
v -2 -6 -2
v -2 -6 2
v -2 -7 1
v -2 -7 -1
v -3 -7 1
v -3 -7 -1
v -3 -6 -1
v -3 -6 1
v -2 -6 -1
v -2 -6 1

vn 0 -1 0
vn -1 0 0
vn 0 0 -1
vn 0 0 1
vn 1 0 0
vn 0 1 0

vt 0.3125 0.0625

usemtl queen

f 3/1/1 2/1/1 1/1/1
f 2/1/1 3/1/1 4/1/1
f 3/1/2 5/1/2 4/1/2
f 5/1/2 3/1/2 6/1/2
f 5/1/3 2/1/3 4/1/3
f 2/1/3 5/1/3 7/1/3
f 8/1/4 3/1/4 1/1/4
f 3/1/4 8/1/4 6/1/4
f 8/1/5 2/1/5 7/1/5
f 2/1/5 8/1/5 1/1/5
f 5/1/6 8/1/6 7/1/6
f 8/1/6 5/1/6 6/1/6
f 11/1/1 10/1/1 9/1/1
f 10/1/1 11/1/1 12/1/1
f 11/1/2 13/1/2 12/1/2
f 13/1/2 11/1/2 14/1/2
f 13/1/3 10/1/3 12/1/3
f 10/1/3 13/1/3 15/1/3
f 16/1/4 11/1/4 9/1/4
f 11/1/4 16/1/4 14/1/4
f 16/1/5 10/1/5 15/1/5
f 10/1/5 16/1/5 9/1/5
f 13/1/6 16/1/6 15/1/6
f 16/1/6 13/1/6 14/1/6
f 19/1/1 18/1/1 17/1/1
f 18/1/1 19/1/1 20/1/1
f 19/1/2 21/1/2 20/1/2
f 21/1/2 19/1/2 22/1/2
f 21/1/3 18/1/3 20/1/3
f 18/1/3 21/1/3 23/1/3
f 24/1/4 19/1/4 17/1/4
f 19/1/4 24/1/4 22/1/4
f 24/1/5 18/1/5 23/1/5
f 18/1/5 24/1/5 17/1/5
f 21/1/6 24/1/6 23/1/6
f 24/1/6 21/1/6 22/1/6
f 27/1/1 26/1/1 25/1/1
f 26/1/1 27/1/1 28/1/1
f 27/1/2 5/1/2 28/1/2
f 5/1/2 27/1/2 6/1/2
f 5/1/3 26/1/3 28/1/3
f 26/1/3 5/1/3 7/1/3
f 8/1/4 27/1/4 25/1/4
f 27/1/4 8/1/4 6/1/4
f 8/1/5 26/1/5 7/1/5
f 26/1/5 8/1/5 25/1/5
f 5/1/6 8/1/6 7/1/6
f 8/1/6 5/1/6 6/1/6
f 31/1/1 30/1/1 29/1/1
f 30/1/1 31/1/1 32/1/1
f 31/1/2 10/1/2 32/1/2
f 10/1/2 31/1/2 9/1/2
f 10/1/3 30/1/3 32/1/3
f 30/1/3 10/1/3 28/1/3
f 27/1/4 31/1/4 29/1/4
f 31/1/4 27/1/4 9/1/4
f 27/1/5 30/1/5 28/1/5
f 30/1/5 27/1/5 29/1/5
f 10/1/6 27/1/6 28/1/6
f 27/1/6 10/1/6 9/1/6
f 35/1/1 34/1/1 33/1/1
f 34/1/1 35/1/1 36/1/1
f 35/1/2 37/1/2 36/1/2
f 37/1/2 35/1/2 38/1/2
f 37/1/3 34/1/3 36/1/3
f 34/1/3 37/1/3 39/1/3
f 40/1/4 35/1/4 33/1/4
f 35/1/4 40/1/4 38/1/4
f 40/1/5 34/1/5 39/1/5
f 34/1/5 40/1/5 33/1/5
f 37/1/6 40/1/6 39/1/6
f 40/1/6 37/1/6 38/1/6
f 43/1/1 42/1/1 41/1/1
f 42/1/1 43/1/1 44/1/1
f 43/1/2 45/1/2 44/1/2
f 45/1/2 43/1/2 46/1/2
f 45/1/3 42/1/3 44/1/3
f 42/1/3 45/1/3 12/1/3
f 11/1/4 43/1/4 41/1/4
f 43/1/4 11/1/4 46/1/4
f 11/1/5 42/1/5 12/1/5
f 42/1/5 11/1/5 41/1/5
f 45/1/6 11/1/6 12/1/6
f 11/1/6 45/1/6 46/1/6
f 49/1/1 48/1/1 47/1/1
f 48/1/1 49/1/1 50/1/1
f 49/1/2 51/1/2 50/1/2
f 51/1/2 49/1/2 52/1/2
f 51/1/3 48/1/3 50/1/3
f 48/1/3 51/1/3 53/1/3
f 54/1/4 49/1/4 47/1/4
f 49/1/4 54/1/4 52/1/4
f 54/1/5 48/1/5 53/1/5
f 48/1/5 54/1/5 47/1/5
f 51/1/6 54/1/6 53/1/6
f 54/1/6 51/1/6 52/1/6
f 57/1/1 56/1/1 55/1/1
f 56/1/1 57/1/1 58/1/1
f 57/1/2 59/1/2 58/1/2
f 59/1/2 57/1/2 60/1/2
f 59/1/3 56/1/3 58/1/3
f 56/1/3 59/1/3 61/1/3
f 62/1/4 57/1/4 55/1/4
f 57/1/4 62/1/4 60/1/4
f 62/1/5 56/1/5 61/1/5
f 56/1/5 62/1/5 55/1/5
f 59/1/6 62/1/6 61/1/6
f 62/1/6 59/1/6 60/1/6
f 65/1/1 64/1/1 63/1/1
f 64/1/1 65/1/1 66/1/1
f 65/1/2 67/1/2 66/1/2
f 67/1/2 65/1/2 68/1/2
f 67/1/3 64/1/3 66/1/3
f 64/1/3 67/1/3 69/1/3
f 70/1/4 65/1/4 63/1/4
f 65/1/4 70/1/4 68/1/4
f 70/1/5 64/1/5 69/1/5
f 64/1/5 70/1/5 63/1/5
f 67/1/6 70/1/6 69/1/6
f 70/1/6 67/1/6 68/1/6
f 73/1/1 72/1/1 71/1/1
f 72/1/1 73/1/1 74/1/1
f 73/1/2 75/1/2 74/1/2
f 75/1/2 73/1/2 76/1/2
f 75/1/3 72/1/3 74/1/3
f 72/1/3 75/1/3 77/1/3
f 78/1/4 73/1/4 71/1/4
f 73/1/4 78/1/4 76/1/4
f 78/1/5 72/1/5 77/1/5
f 72/1/5 78/1/5 71/1/5
f 75/1/6 78/1/6 77/1/6
f 78/1/6 75/1/6 76/1/6
f 81/1/1 80/1/1 79/1/1
f 80/1/1 81/1/1 82/1/1
f 81/1/2 83/1/2 82/1/2
f 83/1/2 81/1/2 84/1/2
f 83/1/3 80/1/3 82/1/3
f 80/1/3 83/1/3 85/1/3
f 86/1/4 81/1/4 79/1/4
f 81/1/4 86/1/4 84/1/4
f 86/1/5 80/1/5 85/1/5
f 80/1/5 86/1/5 79/1/5
f 83/1/6 86/1/6 85/1/6
f 86/1/6 83/1/6 84/1/6
f 89/1/1 88/1/1 87/1/1
f 88/1/1 89/1/1 90/1/1
f 89/1/2 64/1/2 90/1/2
f 64/1/2 89/1/2 63/1/2
f 64/1/3 88/1/3 90/1/3
f 88/1/3 64/1/3 91/1/3
f 92/1/4 89/1/4 87/1/4
f 89/1/4 92/1/4 63/1/4
f 92/1/5 88/1/5 91/1/5
f 88/1/5 92/1/5 87/1/5
f 64/1/6 92/1/6 91/1/6
f 92/1/6 64/1/6 63/1/6
f 95/1/1 94/1/1 93/1/1
f 94/1/1 95/1/1 96/1/1
f 95/1/2 97/1/2 96/1/2
f 97/1/2 95/1/2 98/1/2
f 97/1/3 94/1/3 96/1/3
f 94/1/3 97/1/3 99/1/3
f 100/1/4 95/1/4 93/1/4
f 95/1/4 100/1/4 98/1/4
f 100/1/5 94/1/5 99/1/5
f 94/1/5 100/1/5 93/1/5
f 97/1/6 100/1/6 99/1/6
f 100/1/6 97/1/6 98/1/6
f 103/1/1 102/1/1 101/1/1
f 102/1/1 103/1/1 104/1/1
f 103/1/2 105/1/2 104/1/2
f 105/1/2 103/1/2 106/1/2
f 105/1/3 102/1/3 104/1/3
f 102/1/3 105/1/3 66/1/3
f 65/1/4 103/1/4 101/1/4
f 103/1/4 65/1/4 106/1/4
f 65/1/5 102/1/5 66/1/5
f 102/1/5 65/1/5 101/1/5
f 105/1/6 65/1/6 66/1/6
f 65/1/6 105/1/6 106/1/6
f 109/1/1 108/1/1 107/1/1
f 108/1/1 109/1/1 110/1/1
f 109/1/2 111/1/2 110/1/2
f 111/1/2 109/1/2 112/1/2
f 111/1/3 108/1/3 110/1/3
f 108/1/3 111/1/3 113/1/3
f 114/1/4 109/1/4 107/1/4
f 109/1/4 114/1/4 112/1/4
f 114/1/5 108/1/5 113/1/5
f 108/1/5 114/1/5 107/1/5
f 111/1/6 114/1/6 113/1/6
f 114/1/6 111/1/6 112/1/6

